<?xml version="1.0" encoding="UTF-8"?>
<svg id="Layer_1" data-name="Layer 1" xmlns="http://www.w3.org/2000/svg" viewBox="0 0 86.22 124.89">
  <defs>
    <style>
      .cls-1 {
        stroke-width: 0px;
      }
    </style>
  </defs>
  <path class="cls-1" d="M28.62,111.89l.49.94c.13.26.05.57-.19.73l-1.08.7c-.25.17-.59.1-.76-.15-.03-.05-.06-.11-.07-.17l-.2-.69c-.06-.18-.02-.38.11-.51l.79-.93c.2-.24.55-.27.79-.07.05.04.09.09.12.15Z"/>
  <path class="cls-1" d="M27.65,107.85l.49.94c.14.26.06.58-.19.74l-1.07.7c-.27.17-.62.09-.79-.18-.03-.04-.05-.09-.06-.14l-.2-.71c-.05-.18,0-.37.11-.51l.79-.93c.2-.23.55-.26.79-.06.05.04.09.09.13.15Z"/>
  <path class="cls-1" d="M23.31,112.91v1.01c-.01.28.21.52.49.54l1.29.11c.31.03.58-.19.61-.5,0-.05,0-.11,0-.16l-.11-.69c-.04-.18-.16-.33-.33-.39l-1.13-.44c-.27-.14-.61-.04-.76.23-.05.09-.07.19-.06.29Z"/>
  <path class="cls-1" d="M22.2,108.89l-.02,1.01c0,.28.22.51.5.54l1.27.12c.31.03.58-.19.61-.5,0-.05,0-.11,0-.16l-.11-.69c-.04-.18-.16-.33-.33-.39l-1.08-.45c-.27-.16-.61-.06-.77.2-.06.1-.08.21-.07.32Z"/>
  <path class="cls-1" d="M20.84,104.81v1.01c-.01.29.21.53.49.55l1.27.12c.31.03.58-.19.61-.5,0-.05,0-.11,0-.16l-.11-.69c-.04-.18-.16-.33-.34-.4l-1.08-.45c-.27-.15-.62-.06-.78.22-.05.09-.08.2-.07.31Z"/>
  <path class="cls-1" d="M26.52,103.77l.48.94c.14.25.06.57-.18.73l-1.07.71c-.27.17-.62.09-.79-.18-.03-.04-.05-.09-.06-.14l-.24-.71c-.05-.18,0-.37.11-.51l.79-.93c.19-.25.55-.3.8-.11.07.05.13.12.17.2Z"/>
  <path class="cls-1" d="M13.1,105.03l.3,3.41c.03.31.31.53.61.5.04,0,.09-.01.13-.03l4.88-1.76c.28-.1.43-.41.34-.7l-.89-2.69c-.09-.27-.37-.43-.65-.36l-4.3,1.02c-.27.07-.46.33-.42.61Z"/>
  <path class="cls-1" d="M14.6,110.65l4.91-1.69c.3-.1.63.06.73.37,0,0,0,0,0,.01l.39,1.38c.08.28-.06.58-.34.69l-4.96,1.95c-.29.12-.61-.02-.73-.31-.01-.03-.02-.07-.03-.1l-.35-1.65c-.06-.28.1-.56.37-.65Z"/>
  <path class="cls-1" d="M15.69,116.08l1.19,2.04c.15.26.48.34.74.19.03-.02.07-.05.1-.07l4.03-3.92c.19-.18.21-.47.07-.69l-.56-.8c-.15-.23-.46-.3-.7-.16l-4.65,2.68c-.26.15-.35.48-.21.74Z"/>
  <path class="cls-1" d="M36.22,109.77l.36,2.33c.04.3-.16.57-.46.61-.04,0-.08,0-.13,0l-5.6-.53c-.26-.02-.46-.23-.48-.49l-.07-1c-.02-.28.18-.53.46-.57l5.3-.82c.29-.05.57.16.62.45,0,0,0,0,0,0Z"/>
  <path class="cls-1" d="M34.31,104.86l-5.04,1.25c-.3.07-.49.37-.42.67,0,.01,0,.02,0,.04l.4,1.37c.09.28.37.45.66.39l5.22-1.08c.31-.06.51-.36.45-.67,0-.03-.02-.06-.03-.09l-.6-1.57c-.11-.25-.39-.39-.66-.32Z"/>
  <path class="cls-1" d="M32.51,99.18l1.54,3.06c.13.28.01.61-.26.75-.04.02-.08.03-.12.04l-5.07,1.09c-.29.06-.58-.12-.65-.42l-.66-2.74c-.07-.28.09-.57.36-.66l4.19-1.39c.26-.09.55.03.67.28Z"/>
  <path class="cls-1" d="M20.55,83.88l.12,1.95c.02.19.12.36.28.45l2.23,1.36c.27.16.62.07.78-.2.06-.11.09-.23.07-.35l-.22-2.05c-.02-.18-.12-.34-.28-.43l-2.21-1.24c-.29-.12-.62.03-.74.32-.02.06-.04.13-.04.2Z"/>
  <path class="cls-1" d="M18.51,78.4l.14,2c0,.19-.07.37-.22.49l-3.41,2.83c-.25.19-.61.15-.8-.1-.08-.1-.12-.22-.12-.34l-.02-2.02c0-.18.08-.35.22-.46l3.3-2.73c.24-.19.59-.16.79.09.06.07.1.15.11.24Z"/>
  <path class="cls-1" d="M19.78,77.76l.13,2c0,.19.11.37.27.46l3.72,2.4c.28.16.63.06.79-.21.06-.1.08-.22.07-.33l-.23-2.06c-.02-.18-.12-.34-.28-.42l-3.6-2.31c-.27-.17-.63-.08-.8.2-.05.08-.08.18-.08.27Z"/>
  <path class="cls-1" d="M17.74,72.45l.24,1.99c.03.19-.04.37-.19.49l-3.97,3.57c-.23.21-.58.2-.79-.03-.09-.1-.14-.22-.15-.35l-.15-2.07c-.01-.18.06-.35.19-.46l3.89-3.45c.24-.2.6-.18.8.06.06.07.11.16.13.26Z"/>
  <path class="cls-1" d="M19.44,71.84l.11,1.96c.01.19.11.36.27.45l4.55,2.8c.27.17.62.08.78-.18.07-.11.1-.24.08-.36l-.25-2.04c-.01-.18-.11-.34-.27-.43l-4.47-2.71c-.29-.13-.62,0-.76.28-.04.08-.05.16-.05.24Z"/>
  <path class="cls-1" d="M17.71,66.64l.07,2.01c0,.18-.07.34-.21.45l-3.81,2.79c-.23.17-.55.13-.73-.1-.07-.09-.11-.21-.11-.33l.03-2.18c0-.17.09-.32.22-.42l3.7-2.69c.24-.17.57-.12.74.12.07.1.11.22.1.34Z"/>
  <path class="cls-1" d="M19.23,65.94l.11,1.96c.01.19.11.36.27.45l3.96,2.43c.27.17.62.08.78-.18.07-.11.1-.24.08-.36l-.23-2.05c-.02-.18-.12-.34-.27-.43l-3.84-2.29c-.27-.16-.62-.08-.78.19-.05.09-.08.19-.08.3Z"/>
  <rect class="cls-1" x="8.13" y="87.98" width="6.83" height="4.3" rx="2.14" ry="2.14" transform="translate(-34.6 11.85) rotate(-23.22)"/>
  <rect class="cls-1" x="26.15" y="84.33" width="4.29" height="6.82" rx="2.14" ry="2.14" transform="translate(-63.74 82.34) rotate(-68.77)"/>
  <rect class="cls-1" x="5.76" y="81.82" width="6.82" height="4.29" rx="2.14" ry="2.14" transform="translate(-18.61 4.2) rotate(-12.97)"/>
  <rect class="cls-1" x="27.71" y="77.9" width="4.29" height="6.82" rx="2.14" ry="2.14" transform="translate(-55.31 97.12) rotate(-80.36)"/>
  <rect class="cls-1" x="4.68" y="75.76" width="6.82" height="4.29" rx="2.14" ry="2.14" transform="translate(-11.78 2.14) rotate(-8.77)"/>
  <rect class="cls-1" x="26.95" y="72.83" width="6.82" height="4.29" rx="2.14" ry="2.14" transform="translate(-7.88 3.69) rotate(-6.17)"/>
  <rect class="cls-1" x="4.42" y="69.87" width="6.82" height="4.29" rx="2.14" ry="2.14" transform="translate(-.44 .05) rotate(-.35)"/>
  <rect class="cls-1" x="25.93" y="66.21" width="6.82" height="4.29" rx="2.14" ry="2.14" transform="translate(-17.63 10.67) rotate(-15.93)"/>
  <rect class="cls-1" x="6.48" y="62.27" width="4.29" height="6.82" rx="2.14" ry="2.14" transform="translate(-56.96 56.35) rotate(-74.43)"/>
  <rect class="cls-1" x="23.64" y="60.22" width="6.82" height="4.29" rx="2.14" ry="2.14" transform="translate(-20.59 13.87) rotate(-21.05)"/>
  <path class="cls-1" d="M15.81,51.05c-5.38.83-8.29,7.35-8.74,8.94-.13.26-.02.58.24.71.04.02.08.03.12.04l4.75,1.93c.64.26.85.17,1.12-.49.65-1.6,1.19-2.97,3.98-3.5,1.76-.26,3.55.32,4.81,1.59.19.19.49.21.7.04l4.84-2.99c.27-.11.39-.41.28-.68-.03-.07-.07-.13-.12-.18-1.55-2.22-6.7-6.23-11.99-5.42Z"/>
  <path class="cls-1" d="M18.46,62.42l3.38,2.25c.37.23.86.11,1.09-.26.02-.03.03-.05.04-.08.13-.29.2-.91-.18-1.14l-2.88-2.95c-.41-.21-.91-.06-1.13.35l-.44.67c-.28.36-.23.88.12,1.18Z"/>
  <path class="cls-1" d="M17.09,62.63l-2.55,3.17c-.29.33-.79.36-1.11.08-.02-.02-.05-.04-.07-.07-.2-.24-.46-.81-.18-1.14l1.87-3.69c.32-.33.85-.33,1.17,0l.62.5c.38.26.48.77.24,1.16Z"/>
  <path class="cls-1" d="M18.77,84.16l.48,1.9c.05.18,0,.37-.12.51l-1.72,1.97c-.21.24-.57.27-.8.06-.1-.09-.17-.2-.19-.33l-.4-2.02c-.04-.18,0-.36.13-.49l1.74-1.85c.25-.19.61-.15.8.1.04.05.07.1.09.16Z"/>
  <path class="cls-1" d="M35.9,114.6l-5.57-.82c-.16-.03-.33.02-.46.12l-1.3,1.02c-.99.78-2.25,1.12-3.5.94l-1.74-.21c-.16-.02-.32.03-.45.13l-4.31,3.5c-.25.22-.28.59-.06.85.03.03.05.06.09.08h0c1.91,1.41,4.23,2.15,6.6,2.1h.58c1.35-.04,2.68-.31,3.92-.82l.76-.32c2.4-1,4.35-2.82,5.51-5.15,0,0,.2-.43.28-.56.18-.24.13-.58-.11-.76-.07-.05-.15-.09-.24-.1Z"/>
  <path class="cls-1" d="M58.35,64.8l-.5.93c-.13.25-.05.57.18.73l1.07.71c.25.17.59.11.76-.14.03-.05.06-.11.08-.16l.2-.69c.06-.18.02-.38-.11-.51l-.78-.94c-.2-.24-.55-.27-.79-.07-.05.04-.09.09-.13.15Z"/>
  <path class="cls-1" d="M59.35,60.77l-.5.93c-.14.26-.06.58.18.74l1.06.71c.26.17.62.09.79-.17.03-.04.05-.09.06-.13l.2-.69c.05-.18.01-.37-.11-.51l-.78-.94c-.2-.24-.55-.28-.79-.08-.05.04-.09.09-.12.14Z"/>
  <path class="cls-1" d="M63.65,65.87v1.01c0,.28-.22.52-.51.54l-1.29.1c-.31.03-.58-.2-.61-.51,0-.05,0-.11,0-.16l.11-.69c.04-.18.17-.33.34-.39l1.13-.43c.28-.14.61-.03.75.24.05.09.07.19.06.29Z"/>
  <path class="cls-1" d="M64.8,61.87v1.01c0,.28-.22.51-.5.54l-1.27.11c-.31.03-.58-.2-.61-.51,0-.05,0-.11,0-.16l.11-.69c.04-.18.17-.33.34-.39l1.09-.44c.27-.15.61-.06.76.21.06.1.08.21.07.32Z"/>
  <path class="cls-1" d="M66.2,57.8v1.01c0,.29-.22.53-.51.55l-1.27.11c-.31.03-.58-.2-.61-.51,0-.05,0-.11,0-.16l.11-.69c.04-.18.17-.33.34-.4l1.09-.44c.28-.15.62-.05.77.22.05.09.08.2.07.31Z"/>
  <path class="cls-1" d="M60.58,56.71l-.49.93c-.15.25-.07.57.17.73l1.07.72c.26.17.62.09.79-.17.03-.04.05-.09.06-.13l.2-.69c.05-.18.01-.37-.11-.51l-.78-.94c-.2-.24-.56-.28-.8-.07-.05.04-.09.08-.12.14Z"/>
  <path class="cls-1" d="M73.93,58.08l-.34,3.41c-.03.31-.31.53-.62.49-.04,0-.09-.01-.13-.03l-4.86-1.81c-.28-.11-.43-.42-.33-.7l.92-2.68c.1-.27.38-.42.66-.36l4.29,1.06c.27.07.45.33.42.62Z"/>
  <path class="cls-1" d="M72.38,63.7l-4.89-1.73c-.3-.1-.63.06-.74.36,0,0,0,0,0,.01l-.41,1.37c-.08.28.06.58.33.69l4.94,2c.29.12.61-.01.73-.3.01-.03.02-.07.03-.1l.37-1.64c.06-.28-.1-.56-.37-.66Z"/>
  <path class="cls-1" d="M71.24,69.11l-1.2,2.03c-.16.25-.49.34-.74.18-.03-.02-.07-.05-.1-.07l-3.99-3.96c-.18-.19-.21-.47-.06-.69l.57-.8c.16-.23.46-.3.7-.16l4.62,2.72c.25.15.34.48.2.74Z"/>
  <path class="cls-1" d="M50.77,62.61l-.38,2.33c-.04.3.16.57.46.61.06,0,.12,0,.17,0l5.6-.48c.26-.02.47-.23.49-.49l.08-1c.02-.28-.18-.53-.45-.57l-5.34-.88c-.29-.05-.57.15-.62.44,0,.01,0,.02,0,.03Z"/>
  <path class="cls-1" d="M52.73,57.72l5.03,1.3c.3.07.48.38.41.68,0,.01,0,.02-.01.04l-.42,1.37c-.09.28-.37.44-.66.39l-5.21-1.13c-.31-.07-.5-.37-.44-.68,0-.03.02-.06.03-.09l.61-1.56c.11-.25.39-.39.66-.32Z"/>
  <path class="cls-1" d="M54.58,52.06l-1.57,3.05c-.14.28-.02.61.26.75.04.02.08.03.12.04l5.06,1.13c.29.07.59-.12.65-.41l.68-2.74c.08-.28-.08-.57-.36-.67l-4.12-1.43c-.27-.12-.59,0-.72.27Z"/>
  <path class="cls-1" d="M66.69,36.87l-.14,1.95c-.02.19-.12.36-.29.45l-2.25,1.33c-.27.16-.62.06-.78-.21-.06-.11-.09-.23-.07-.36l.23-2.05c.02-.18.13-.34.28-.43l2.23-1.22c.29-.11.62.03.74.33.02.06.04.13.04.2Z"/>
  <path class="cls-1" d="M68.78,31.41l-.16,2c-.01.19.07.37.21.49l3.38,2.86c.25.19.61.15.8-.09.08-.1.12-.22.12-.34l.04-2.02c0-.18-.07-.35-.22-.46l-3.28-2.76c-.24-.2-.59-.16-.79.08-.06.07-.1.15-.12.24Z"/>
  <path class="cls-1" d="M67.52,30.76l-.15,2c0,.19-.11.36-.28.46l-3.74,2.37c-.28.16-.63.06-.79-.22-.06-.1-.08-.22-.07-.33l.25-2.06c.02-.18.13-.33.28-.42l3.63-2.27c.28-.16.63-.07.79.2.05.08.08.18.08.27Z"/>
  <path class="cls-1" d="M69.6,25.46l-.25,1.98c-.03.19.04.37.18.5l3.94,3.6c.23.21.58.2.79-.02.09-.09.14-.22.15-.35l.17-2.07c.02-.18-.05-.35-.19-.47l-3.86-3.49c-.24-.21-.6-.18-.8.05-.06.07-.11.16-.13.26Z"/>
  <path class="cls-1" d="M67.91,24.84l-.13,1.96c-.01.19-.12.35-.28.45l-4.58,2.76c-.27.16-.62.08-.78-.19-.07-.11-.09-.24-.08-.36l.27-2.03c.02-.18.12-.34.27-.43l4.49-2.67c.29-.13.62,0,.75.28.03.08.05.16.05.24Z"/>
  <path class="cls-1" d="M69.69,19.65l-.09,2.01c0,.18.07.34.21.45l3.78,2.83c.23.18.55.14.73-.09.07-.09.11-.21.11-.33v-2.18c-.01-.17-.09-.32-.22-.42l-3.68-2.72c-.24-.17-.57-.12-.74.11-.07.1-.11.22-.1.34Z"/>
  <path class="cls-1" d="M68.18,18.94l-.13,1.96c-.01.19-.12.36-.28.45l-3.98,2.39c-.27.16-.62.08-.78-.19-.07-.11-.09-.24-.08-.36l.24-2.05c.02-.18.12-.34.27-.43l3.87-2.25c.27-.16.62-.07.78.2.05.09.08.19.08.3Z"/>
  <rect class="cls-1" x="73.53" y="40.1" width="4.29" height="6.82" rx="2.14" ry="2.14" transform="translate(5.13 94.93) rotate(-65.99)"/>
  <rect class="cls-1" x="55.48" y="38.51" width="6.82" height="4.29" rx="2.14" ry="2.14" transform="translate(-10.56 23.43) rotate(-20.69)"/>
  <rect class="cls-1" x="75.91" y="33.66" width="4.29" height="6.82" rx="2.14" ry="2.14" transform="translate(23.78 104.31) rotate(-76.49)"/>
  <rect class="cls-1" x="53.99" y="32.07" width="6.82" height="4.29" rx="2.14" ry="2.14" transform="translate(-4.69 9.51) rotate(-9.1)"/>
  <rect class="cls-1" x="77.05" y="27.61" width="4.29" height="6.82" rx="2.14" ry="2.14" transform="translate(35.78 104.15) rotate(-80.69)"/>
  <rect class="cls-1" x="54.82" y="24.47" width="4.29" height="6.82" rx="2.14" ry="2.14" transform="translate(22.62 81.19) rotate(-83.29)"/>
  <rect class="cls-1" x="77.37" y="21.71" width="4.29" height="6.82" rx="2.14" ry="2.14" transform="translate(53.17 104.24) rotate(-89.11)"/>
  <rect class="cls-1" x="55.91" y="17.86" width="4.29" height="6.82" rx="2.14" ry="2.14" transform="translate(21.2 70.91) rotate(-73.53)"/>
  <rect class="cls-1" x="75.38" y="16.62" width="6.82" height="4.29" rx="2.14" ry="2.14" transform="translate(-2.17 21.07) rotate(-15.03)"/>
  <rect class="cls-1" x="58.26" y="11.88" width="4.29" height="6.82" rx="2.14" ry="2.14" transform="translate(23.96 65.82) rotate(-68.41)"/>
  <path class="cls-1" d="M71.74,4.09c5.37.88,8.22,7.43,8.66,9.02.13.26.02.58-.24.71-.04.02-.08.03-.12.04l-4.77,1.88c-.64.25-.85.17-1.11-.5-.64-1.6-1.16-2.98-3.95-3.54-1.76-.28-3.55.29-4.82,1.54-.19.19-.5.21-.71.04l-4.81-3.04c-.26-.11-.39-.42-.27-.68.03-.07.07-.12.12-.17,1.57-2.21,6.76-6.17,12.04-5.3Z"/>
  <path class="cls-1" d="M68.98,15.43l-3.4,2.22c-.37.22-.86.1-1.08-.27-.02-.03-.03-.06-.04-.08-.12-.29-.19-.91.19-1.13l2.91-2.93c.41-.2.91-.05,1.13.36l.44.67c.28.36.22.88-.13,1.17Z"/>
  <path class="cls-1" d="M70.35,15.66l2.52,3.19c.28.33.78.37,1.11.09.02-.02.05-.04.07-.07.2-.24.47-.81.19-1.13l-1.82-3.7c-.32-.33-.84-.34-1.17-.02l-.63.49c-.38.25-.5.76-.26,1.15Z"/>
  <path class="cls-1" d="M68.46,37.16l-.5,1.89c-.05.18,0,.37.12.52l1.7,1.98c.2.24.56.27.8.07.1-.08.17-.2.19-.33l.42-2.02c.04-.18,0-.36-.12-.5l-1.72-1.86c-.25-.2-.6-.16-.8.09-.04.05-.07.1-.09.16Z"/>
  <path class="cls-1" d="M51.05,67.45l5.58-.77c.16-.02.33.02.46.13l1.29,1.03c.98.79,2.24,1.14,3.49.98l1.74-.19c.16-.01.32.03.44.13l4.27,3.54c.25.22.27.6.06.85-.03.03-.05.06-.09.08h0c-1.92,1.39-4.25,2.11-6.62,2.04h-.58c-1.35-.05-2.67-.34-3.91-.87l-.76-.33c-2.39-1.02-4.33-2.87-5.46-5.2,0,0-.19-.43-.27-.56-.18-.24-.13-.58.11-.76.07-.05.15-.09.24-.1Z"/>
</svg>