<?xml version="1.0" encoding="UTF-8"?>
<svg id="Layer_1" data-name="Layer 1" xmlns="http://www.w3.org/2000/svg" viewBox="0 0 100 125">
  <defs>
    <style>
      .cls-1 {
        fill: none;
      }

      .cls-1, .cls-2 {
        stroke-width: 0px;
      }
    </style>
  </defs>
  <path class="cls-1" d="M55.9,61.65c1.4-1.09,2.81-2.36,4.23-3.49-.11-.15-.22-.3-.33-.45-1.38,1.09-2.9,2.35-4.24,3.44.11.17.23.34.35.5Z"/>
  <polygon class="cls-1" points="63.98 55 68.14 51.61 67.77 51.13 63.63 54.55 63.98 55"/>
  <path class="cls-1" d="M46.33,61.34c1.74.85,3.17-.11,4.41-.94,1.87-1.26,26.63-22.6,28.5-24.49.19-.19.07-.92-.14-1.25-.75-1.19-.74-2.16.35-3.24-1.28-1.15-3.18-2.31-4.71-2.81-3.81-1.23-8.14-2-12.06-1.54-3.57.41-6.53-.1-9.6-2.58-1.51,3.62-8.08,29.15-10.43,37.59-.03.09.24.81.22.9-.13.47-.56.33-.69.8,1.21-.64,2.16-1.43,3.16-2.16.27-.2.77-.39,1.01-.27Z"/>
  <path class="cls-1" d="M51.69,64.32c-1.26.99-2.5,2.12-3.76,3.12.08.12.23.31.32.43,1.42-.98,2.53-2.09,3.8-3.08-.12-.16-.23-.31-.35-.47Z"/>
  <path class="cls-1" d="M80.84,45.77c-3.49,1.34-6.58,3.25-8.42,6.61-.86,1.58-1.43,3.37-1.9,5.12-.48,1.76-1.19,3.29-2.63,4.46-3.16,2.57-6.31,5.15-9.43,7.77-1.83,1.54-3.84,2.15-6.23,1.7-.44-.08-1.65.75-2.36,1.28,8.68,6.38,20.7,15.2,21.08,15.45.53-2.15,1.54-5.27,2.34-7.04,9.5-17.44,11-20,11.85-26.85.36-2.91.11-7.03-.5-9.67-.03-.15-2.68.73-3.8,1.16Z"/>
  <path class="cls-1" d="M47.63,74.88c-.76-.42-1.62.42-2.29,1.4-.74,1.33,1.71,1.4,2.07,1.49-.04.1.04.48-.1.5-2.04.29-2.85-1.01-2.85-1.01,0,0-.69.53-.85,1.52,1.95,1.15,2.64,1.03,3.8.06.66-.63.81-.74,1.29-1.29.79-.9-.48-2.34-1.06-2.67Z"/>
  <path class="cls-2" d="M92.87,24.32l-.41,1.32s-.08.02-.12.05c-1.34,1.08-6.93,5.54-8.25,6.64-1.28,1.07-1.3,1.07-2.48-.13-.16-.17-1.54-4.29-8.47-6.03-4.19-1.05-8.39-.79-12.62-.38-1.46.14-4.06.74-6.67-1.75-.49-.77-1.05-1.11-1.83-1.27-.66-.13-1.07-.12-1.05.57.02.57.52.79.63,1.17.12.39-.15.93-.29,1.49-1.48,5.86-7.82,29.05-9.25,34.27-.56,2.03-.53,2.03-2.68,1.81-.23-.02-2.02.02-1.34,1.83.18.47.43.93.78,1.72-1.56-.29-1.76,3.29-1.55,4.06.26.93.92,2.79-1.92,5.5-.71.67-2.51,4.21-2.46,5.42.12,2.87-2.01,3.25-5.45,3.8-3.18.5-20.89,17.67-21.74,18.49-.66.64-.47,1.76.25,2.32.98.75,7.12,3.38,9.12,4.07,3.3,1.15,4.55.85,6.35-2.03,2.2-3.51,4.27-7.1,6.33-10.7,1.51-2.62,3.08-5.07,6.58-5.12,3.14,0,8.19.64,4.33-3.84-2.63-3.11,1.06-6.74,1.41-7,1.22-.9,2.39-1.39,3.91-.59,1.23.65,2.81-.39,4.02-1.54,1.62-1.63.97-2.2.18-3.5-.62-1.04.25-1.66.66-2,0,0,.02-.02.03-.02,7.57,5.71,17.47,13.17,17.69,13.3.36.21,3.81,2.38,4.31,4.31.05.2,1.93.99,2.12.28.39-1.37.26-3.46-.25-4.94-.13-.38-.35-2.02,2.2-6.13,8.81-16,10.92-16.78,12.24-25.9.54-4.99-.31-8.65-.31-9.46,1.48.71,2.32.6,2.39-.36.03-.36-.77-2.45-.84-3.49-.19-3.12,2.57-4.8,2.25-5.31-.72-.81-1.42-1.33-2.19-1.75-.77-.42-2.23-.64-3.37-.82,1.84-1.53,6.08-4.83,7.69-6.26.04-.03.07-.08.09-.12l1.43-.12,2.29-3.41-3.77,1.56ZM42.27,62.89c.03-.09-.24-.81-.22-.9,2.35-8.44,8.92-33.97,10.43-37.59,3.07,2.48,6.03,3,9.6,2.58,3.93-.45,8.25.31,12.06,1.54,1.54.5,3.44,1.66,4.71,2.81-1.08,1.07-1.1,2.04-.35,3.24.21.33.34,1.06.14,1.25-1.87,1.89-26.63,23.22-28.5,24.49-1.24.84-2.67,1.8-4.41.94-.24-.12-.74.07-1.01.27-1,.73-1.95,1.52-3.16,2.16.13-.47.56-.33.69-.8ZM67.56,51.53l-4.16,3.39-.35-.46,4.15-3.41.37.48ZM59.53,58.07c-1.42,1.14-2.83,2.4-4.23,3.49-.12-.17-.23-.34-.35-.5,1.34-1.08,2.85-2.35,4.24-3.44.11.15.22.3.34.45ZM47.34,67.35c1.26-.99,2.5-2.12,3.76-3.12.12.15.24.31.35.47-1.27.99-2.38,2.09-3.8,3.08-.08-.11-.23-.31-.32-.43ZM48.1,77.47c-.48.54-.63.66-1.29,1.29-1.16.97-1.84,1.09-3.8-.06.16-.99.85-1.52.85-1.52,0,0,.81,1.31,2.85,1.01.14-.02.06-.39.1-.5-.36-.1-2.81-.17-2.07-1.49.67-.98,1.54-1.82,2.29-1.4.58.32,1.85,1.77,1.06,2.67ZM84.56,54.19c-.85,6.85-2.35,9.42-11.85,26.85-.79,1.76-1.81,4.89-2.34,7.04-.38-.25-12.4-9.07-21.08-15.45.71-.53,1.92-1.37,2.36-1.28,2.39.45,4.39-.16,6.23-1.7,3.12-2.62,6.27-5.2,9.43-7.77,1.44-1.17,2.15-2.7,2.63-4.46.48-1.75,1.04-3.53,1.9-5.12,1.84-3.36,4.93-5.27,8.42-6.61,1.12-.43,3.77-1.31,3.8-1.16.61,2.64.87,6.76.5,9.67Z"/>
</svg>