<?xml version="1.0" encoding="UTF-8"?>
<svg id="Layer_1" data-name="Layer 1" xmlns="http://www.w3.org/2000/svg" viewBox="0 0 100 125">
  <defs>
    <style>
      .cls-1 {
        stroke-width: 0px;
      }
    </style>
  </defs>
  <path class="cls-1" d="M51.35,93.26c-.65-.04-1.35,4.55-1.35,6.87,0,.75.51.85,1.65.85,1.06,0,1.23-.2,1.4-.73.3-.93-1.04-6.95-1.69-7Z"/>
  <path class="cls-1" d="M54.48,94.83c-.67-.08-1.41,4.31-1.21,5.35.09.48,1.01.39,1.47.35.46-.03,1.54-.39,1.5-1.72-.05-1.33-1.09-3.9-1.75-3.98Z"/>
  <path class="cls-1" d="M57.89,93.57c-.4,0-1.39,2.52-1.38,4.89,0,.92.9,1.27,1.62,1.37.74.1,1.28-.38,1.5-1.08.22-.7.04-5.15-1.73-5.18Z"/>
  <path class="cls-1" d="M61.41,93.77c-.49-.23-1.47,2.12-1.49,3.01-.02.59.1.88.29,1.46.23.71,1.8-.46,1.9-.96.11-.49-.17-3.26-.71-3.51Z"/>
  <path class="cls-1" d="M63.21,92.83c-.26.06-.83,1.71-.87,2.73-.01.26.06,1.46.26,1.42.19-.04.41-.58.55-.52.14.06.47-.27.72-.54.25-.27-.03-.6-.05-1.1-.02-.51-.35-2.05-.61-1.99Z"/>
  <path class="cls-1" d="M65.22,91.16c-.38.07-1.05,1.77-1.17,2.35,0,0-.09,1.16.23,1.4.31.23.29-.43.55-.53.26-.11.59-.5.72-.86.13-.37.04-2.42-.34-2.36Z"/>
  <path class="cls-1" d="M48.64,93.26c-.65.05-1.99,6.07-1.69,7,.17.53.34.73,1.4.73,1.13,0,1.65-.1,1.65-.85,0-2.33-.7-6.92-1.35-6.87Z"/>
  <path class="cls-1" d="M45.51,94.83c-.67.08-1.71,2.65-1.75,3.99-.05,1.33,1.04,1.69,1.5,1.72.46.03,1.37.13,1.47-.35.2-1.05-.54-5.43-1.21-5.36Z"/>
  <path class="cls-1" d="M42.1,93.57c-1.77.03-1.95,4.48-1.74,5.18.22.7.76,1.18,1.5,1.08.72-.1,1.62-.45,1.62-1.37,0-2.38-.98-4.9-1.38-4.89Z"/>
  <path class="cls-1" d="M38.58,93.77c-.54.26-.81,3.02-.71,3.51.11.5,1.67,1.67,1.9.96.19-.59.31-.88.29-1.46-.03-.89-1-3.24-1.49-3.01Z"/>
  <path class="cls-1" d="M36.78,92.83c-.26-.06-.58,1.49-.6,1.99-.02.51-.31.83-.06,1.1.25.27.58.6.72.54.14-.06.35.47.55.52.19.04.27-1.17.26-1.42-.04-1.01-.61-2.67-.87-2.73Z"/>
  <path class="cls-1" d="M34.76,91.16c-.38-.06-.47,1.98-.33,2.35.13.36.46.75.72.86.26.11.24.77.55.53.31-.23.23-1.39.23-1.39-.12-.58-.79-2.28-1.17-2.35Z"/>
  <path class="cls-1" d="M83.61,61.33c1.42-2.56,2.9-9.59,2.5-12.37-.4-2.78-2.21-5-2.5-10.05-.28-5.05-4.6-13.73-10.61-17.31-6.02-3.57-15.04-7.55-23-7.55s-16.98,3.97-23,7.55c-6.02,3.58-10.33,12.26-10.61,17.31-.28,5.05-2.1,7.27-2.49,10.05-.4,2.78,1.07,9.82,2.49,12.37.11,4.71.28,6.69,1.76,7.55-.91,1.13-2.95,3.65-2.5,5.31.45,1.67,3.52,6.94,5.44,8.19,1.93,1.25,4.6.74,6.87,1.59,2.27.85,6.36.91,6.7,2.5.34,1.59.17,4.48.17,4.48.76,0,1.17,2.17,1.37,2.17s.12-.84.65-.72c.53.12.81,1.89,1.03,1.92.22.02.29-1.06.87-.96.58.1.96,1.37,1.37,1.44.41.07,1.11-1.8,1.95-1.73.84.07,1.39,2.5,1.92,2.52.53.02.94-1.46,1.47-1.46s.93,1.48,1.46,1.46c.53-.02,1.03-3.39,1.8-3.34.77.05.99,2.74,1.28,2.74s.51-2.69,1.28-2.74c.77-.05,1.27,3.31,1.8,3.34.53.02.93-1.46,1.46-1.46s.94,1.48,1.48,1.46c.53-.02,1.07-2.45,1.92-2.52.84-.07,1.54,1.81,1.95,1.73.41-.07.79-1.35,1.37-1.44.58-.1.65.99.86.96.22-.02.5-1.8,1.03-1.92.53-.12.46.72.65.72s.61-2.17,1.36-2.17c0,0-.17-2.89.17-4.48.34-1.59,4.43-1.65,6.7-2.5,2.27-.85,4.94-.34,6.86-1.59,1.93-1.25,5-6.53,5.45-8.19.45-1.66-1.59-4.18-2.5-5.31,1.48-.85,1.65-2.84,1.77-7.55ZM21.8,64.54c-.05,3.14-.12,5.42-.63,6.32l-.21.37-.43-.03c-.12,0-.25-.02-.36-.03-.64-.06-.82-.06-1.01.15-.13.15-.32.23-.51.23-.16,0-.32-.06-.45-.17-.28-.25-.3-.69-.05-.97.61-.68,1.32-.67,1.98-.6.26-1.09.29-3.66.32-5.28.02-1.11.03-2.07.09-2.69.18-2.05.61-3.32,2.77-5.88,1.52-1.81.98-4.42.29-7.72-.15-.72-.3-1.46-.44-2.22-.07-.37.18-.72.55-.79.37-.06.72.18.79.55.14.75.29,1.48.44,2.19.73,3.52,1.37,6.56-.58,8.87-2.02,2.4-2.3,3.4-2.45,5.13-.05.57-.07,1.55-.08,2.58ZM37.83,76.94c-.62,0-1.68.08-1.85.6-.09.29-.36.48-.65.48-.06,0-.13-.01-.2-.03-.36-.11-.56-.49-.45-.85.32-1.04,1.38-1.56,3.15-1.56.38,0,.68.31.68.68,0,.37-.31.68-.69.68ZM43.59,64.86c-.67,3.32-4.51,7.71-10.64,9.1-6.13,1.39-8.58-3.52-9.21-8.23-.63-4.7,1.62-6.4,6.49-8.46,4.86-2.06,8.34-1.66,10.72.2,2.38,1.86,2.95,5.92,2.65,7.39ZM52.98,86.06c-1.65,1.58-2.47,1.46-2.99,1.5-.51.04-1.35.08-2.98-1.5-1.65-1.58-4.18-3.76-2.99-8.27,1.19-4.51,2.69-10.28,3.76-10.6,1.07-.32,1.07.48,2.21.48s1.15-.79,2.22-.48c1.07.31,2.57,6.09,3.76,10.6,1.18,4.51-1.35,6.68-2.99,8.27ZM64.86,77.99c-.07.02-.14.03-.2.03-.29,0-.56-.19-.65-.48-.17-.52-1.23-.6-1.85-.6-.38,0-.68-.31-.68-.68s.31-.68.68-.68c1.77,0,2.83.53,3.15,1.56.11.36-.09.74-.45.85ZM76.25,65.73c-.63,4.71-3.08,9.61-9.21,8.23-6.13-1.39-9.97-5.77-10.64-9.1-.3-1.47.27-5.53,2.65-7.39,2.37-1.86,5.85-2.26,10.72-.2,4.87,2.06,7.12,3.76,6.49,8.46ZM81.79,71.37c-.13.12-.29.17-.46.17-.19,0-.37-.08-.51-.22-.18-.21-.36-.21-1.01-.15-.12.01-.24.02-.36.03l-.43.03-.21-.37c-.51-.9-.58-3.18-.63-6.32-.02-1.03-.03-2.01-.08-2.58-.16-1.73-.44-2.73-2.45-5.13-1.95-2.32-1.32-5.35-.58-8.87.15-.71.3-1.44.44-2.19.07-.37.43-.61.79-.55.37.07.61.42.55.79-.14.77-.29,1.51-.44,2.22-.69,3.3-1.23,5.91.29,7.72,2.15,2.56,2.58,3.83,2.77,5.88.06.62.07,1.58.09,2.69.02,1.62.06,4.19.32,5.27.65-.06,1.37-.07,1.98.61.25.28.23.72-.05.97Z"/>
</svg>